<svg id="圖層_1" data-name="圖層 1" xmlns="http://www.w3.org/2000/svg" viewBox="0 0 12.07 12.81"><defs><style>.cls-1{fill:#ff5943;}</style></defs><path class="cls-1" d="M12,4.17a.57.57,0,0,1-.16.61l-1.08,1c0,.21,0,.42,0,.63s0,.43,0,.64l1.08,1a.58.58,0,0,1,.16.62,6.72,6.72,0,0,1-.4.86l-.11.2a6.16,6.16,0,0,1-.56.78.56.56,0,0,1-.61.17L9,10.21a5.83,5.83,0,0,1-1.1.64l-.32,1.42a.59.59,0,0,1-.45.45A6.33,6.33,0,0,1,6,12.81a6.18,6.18,0,0,1-1-.09.59.59,0,0,1-.45-.45L4.2,10.85a5.26,5.26,0,0,1-1.1-.64l-1.39.44a.56.56,0,0,1-.61-.17A6.08,6.08,0,0,1,.55,9.7L.43,9.5A6.72,6.72,0,0,1,0,8.64.58.58,0,0,1,.19,8L1.27,7c0-.21,0-.42,0-.64s0-.42,0-.63l-1.08-1A.57.57,0,0,1,0,4.17a6.14,6.14,0,0,1,.4-.86l.12-.2a6.19,6.19,0,0,1,.55-.79.58.58,0,0,1,.61-.17L3.1,2.6A5.26,5.26,0,0,1,4.2,2L4.52.53A.57.57,0,0,1,5,.09,6.35,6.35,0,0,1,7.1.09a.57.57,0,0,1,.45.44L7.87,2A5.83,5.83,0,0,1,9,2.6l1.39-.45a.58.58,0,0,1,.61.17,6.26,6.26,0,0,1,.56.79l.11.2a6.14,6.14,0,0,1,.4.86ZM6,8.4a2,2,0,1,0-2-2A2,2,0,0,0,6,8.4Z"/></svg>